# xmcd
#
# Track frame offsets:
#        187
#        17625
#        37270
#        79020
#        97352
#        111892
#        141940
#        163762
#        198977
#
# Disc length: 3952 seconds
#
# Revision: 2
# Processed by: cddbd v1.5.1PL0 Copyright (c) Steve Scherf et al.
# Submitted via: ExactAudioCopy v0.95a5
#
DISCID=7d0f6e09
DTITLE=Thelonious Monk - Thelonious Himself
DYEAR=1954
DGENRE=Jazz
TTITLE0=April In Paris
TTITLE1=(I Don't Stand)A Ghost Of A Chance With You
TTITLE2=Functional
TTITLE3=I'm Getting Sentimental Over You
TTITLE4=I Should Care
TTITLE5='Round Midnight
TTITLE6=All Alone
TTITLE7=Monk's Mood
TTITLE8='Round Midnight(in progress)
EXTD=YEAR: 1954
EXTT0=
EXTT1=
EXTT2=
EXTT3=
EXTT4=
EXTT5=
EXTT6=
EXTT7=
EXTT8=
PLAYORDER=
